<?xml version="1.0" encoding="UTF-8"?>
<svg id="uuid-9a32845f-bfde-489b-9750-bf9a2e235b67" data-name="Layer 1" xmlns="http://www.w3.org/2000/svg" width="49.3269" height="54.4942" viewBox="0 0 49.3269 54.4942">
  <defs>
    <style>
      .uuid-0e5937b8-c41d-4631-b8a0-8203e8c1a79b {
        fill: #010101;
      }

      .uuid-e6ed8ff2-ba8a-4c1e-a5cf-a599836335be {
        fill: #d3d3d3;
      }
    </style>
  </defs>
  <g>
    <rect class="uuid-e6ed8ff2-ba8a-4c1e-a5cf-a599836335be" x="-3.046" y="25.1068" width="50.4276" height="4.2806" transform="translate(-12.7738 23.6555) rotate(-45)"/>
    <path class="uuid-e6ed8ff2-ba8a-4c1e-a5cf-a599836335be" d="M38.4834,10.7301l.2016,.2016L5.8526,43.7641l-.2016-.2016L38.4834,10.7301m0-5.651L0,43.5625l5.8526,5.8526L44.3359,10.9317l-5.8526-5.8526h0Z"/>
  </g>
  <g>
    <path class="uuid-0e5937b8-c41d-4631-b8a0-8203e8c1a79b" d="M43.4743,7.9075l3.0242,3.0242L10.8436,46.5866l-3.0242-3.0241L43.4743,7.9075m0-2.8284L4.991,43.5625l5.8526,5.8526L49.3269,10.9317l-5.8526-5.8526h0Z"/>
    <path class="uuid-0e5937b8-c41d-4631-b8a0-8203e8c1a79b" d="M37.0821,37.1703l4.1347,1.1079,4.1347,1.1079-3.0268,3.0268-3.0268,3.0268-1.1079-4.1347-1.1079-4.1347m-2.8284-2.8284l.8966,3.3461,1.1079,4.1347,1.1079,4.1347,.8966,3.3461,2.4495-2.4495,3.0268-3.0268,3.0268-3.0268,2.4495-2.4495-3.3461-.8966-4.1347-1.1079-4.1347-1.1079-3.3461-.8966h0Z"/>
    <path class="uuid-0e5937b8-c41d-4631-b8a0-8203e8c1a79b" d="M15.02,9.0545l1.1079,4.1347,1.1079,4.1347-4.1347-1.1079-4.1347-1.1079,3.0268-3.0268,3.0268-3.0268m1.0353-3.8637l-2.4495,2.4495-3.0268,3.0268-3.0268,3.0268-2.4495,2.4495,3.3461,.8966,4.1347,1.1079,4.1347,1.1079,3.3461,.8966-.8966-3.3461-1.1079-4.1347-1.1079-4.1347-.8966-3.3461h0Z"/>
  </g>
</svg>